<svg xmlns="http://www.w3.org/2000/svg" viewBox="0 0 200 150" width="300" height="225">
  <ellipse cx="110" cy="75" rx="55" ry="35" fill="#f59e0b"/>
  <ellipse cx="110" cy="75" rx="55" ry="35" fill="url(#grad)"/>
  <defs>
    <radialGradient id="grad" cx="40%" cy="30%">
      <stop offset="0%" stop-color="#fbbf24"/>
      <stop offset="100%" stop-color="#d97706"/>
    </radialGradient>
  </defs>
  <path d="M30 75 Q10 55 20 40 Q35 55 35 75 Q35 95 20 110 Q10 95 30 75Z" fill="#ea580c"/>
  <ellipse cx="130" cy="65" rx="6" ry="7" fill="white"/>
  <circle cx="132" cy="66" r="3" fill="#1e293b"/>
  <path d="M145 78 Q155 75 145 72" stroke="#d97706" stroke-width="1.5" fill="none"/>
  <path d="M90 50 Q110 35 130 50" stroke="#d97706" stroke-width="2" fill="#f59e0b" opacity="0.8"/>
  <path d="M95 100 Q110 110 125 100" stroke="#d97706" stroke-width="2" fill="#f59e0b" opacity="0.6"/>
  <path d="M80 70 Q85 65 90 70" stroke="#ca8a04" stroke-width="0.8" fill="none" opacity="0.5"/>
  <path d="M95 80 Q100 75 105 80" stroke="#ca8a04" stroke-width="0.8" fill="none" opacity="0.5"/>
  <path d="M115 85 Q120 80 125 85" stroke="#ca8a04" stroke-width="0.8" fill="none" opacity="0.5"/>
</svg>
